<svg id="Calque_1" data-name="Calque 1" xmlns="http://www.w3.org/2000/svg" viewBox="0 0 792 612"><defs><style>.cls-1,.cls-2{fill:none;stroke:#1d1d1b;stroke-linecap:round;stroke-linejoin:round;}.cls-1{stroke-width:21.08px;}.cls-2{stroke-width:30.95px;}</style></defs><title>WEB DESIGN ICONES2</title><path class="cls-1" d="M591.84,312.09h-66a9.06,9.06,0,0,0-9,9v33.26h-221V321.13a9.06,9.06,0,0,0-9-9h-66a9.06,9.06,0,0,0-9,9v113a9.06,9.06,0,0,0,9,9h66a9.06,9.06,0,0,0,7.92-4.71H517.91a9.05,9.05,0,0,0,7.92,4.71h66a9.06,9.06,0,0,0,9-9v-113A9.06,9.06,0,0,0,591.84,312.09Z"/><polygon class="cls-2" points="406.3 163.12 491.48 163.12 448.89 236.89 406.3 310.66 363.7 236.89 321.11 163.12 406.3 163.12"/></svg>