<svg id="Calque_1" data-name="Calque 1" xmlns="http://www.w3.org/2000/svg" viewBox="0 0 792 612"><defs><style>.cls-1,.cls-2,.cls-4{fill:none;stroke:#1d1d1b;}.cls-1,.cls-2{stroke-miterlimit:10;}.cls-1{stroke-width:27.84px;}.cls-2{stroke-width:31.28px;}.cls-3{fill:#fff;}.cls-4{stroke-linecap:round;stroke-linejoin:round;stroke-width:18.29px;}.cls-5{fill:#1d1d1b;}</style></defs><title>WEB DESIGN ICONES2</title><ellipse class="cls-1" cx="421.41" cy="318.74" rx="119.18" ry="100.53" transform="translate(-23.28 604.1) rotate(-69.79)"/><ellipse class="cls-2" cx="429.65" cy="285.56" rx="133.91" ry="112.96" transform="translate(13.25 590.12) rotate(-69.79)"/><ellipse class="cls-3" cx="379.3" cy="414.35" rx="64.99" ry="77.9"/><ellipse class="cls-3" cx="439.7" cy="379.59" rx="63.99" ry="38.39" transform="translate(-54.7 684.52) rotate(-72.47)"/><ellipse class="cls-4" cx="285.87" cy="326.53" rx="71.48" ry="42.89" transform="translate(-111.61 500.76) rotate(-72.47)"/><ellipse class="cls-3" cx="309.17" cy="340.52" rx="71.48" ry="42.89" transform="matrix(0.3, -0.95, 0.95, 0.3, -108.67, 532.76)"/><ellipse class="cls-4" cx="309.37" cy="338.29" rx="71.48" ry="42.89" transform="translate(-106.4 531.39) rotate(-72.47)"/><ellipse class="cls-5" cx="311.65" cy="339.24" rx="39.44" ry="23.66" transform="translate(-105.71 534.24) rotate(-72.47)"/><ellipse class="cls-4" cx="462.28" cy="422.52" rx="71.48" ry="42.89" transform="translate(-79.86 736.06) rotate(-72.47)"/><ellipse class="cls-3" cx="498.78" cy="436.13" rx="71.48" ry="42.89" transform="translate(-67.34 780.37) rotate(-72.47)"/><ellipse class="cls-4" cx="494.67" cy="436.62" rx="71.48" ry="42.89" transform="translate(-70.67 776.8) rotate(-72.47)"/></svg>