<svg id="Calque_1" data-name="Calque 1" xmlns="http://www.w3.org/2000/svg" viewBox="0 0 792 612"><defs><style>.cls-1,.cls-2,.cls-4{fill:none;stroke:#1d1d1b;stroke-linecap:round;stroke-linejoin:round;}.cls-1{stroke-width:18.33px;}.cls-2{stroke-width:15.73px;}.cls-3{fill:#1d1d1b;}.cls-4{stroke-width:6.18px;}</style></defs><title>WEB DESIGN ICONES2</title><path class="cls-1" d="M604.45,299.95c-10.31-22.23-23-41.17-36.18-55.36-9-19.26-27.49-32.45-48.79-32.45a50.87,50.87,0,0,0-10.9,1.18H327.09a50.86,50.86,0,0,0-10.9-1.18c-22.53,0-41.87,14.76-50.26,35.84-12.1,13.76-23.61,31.47-33.12,52-27.26,58.79-27.7,118.25-1,132.81s70.47-21.3,97.73-80.1c3.33-7.18,6.26-14.38,8.79-21.5H498.93c2.53,7.12,5.46,14.31,8.79,21.5,27.26,58.79,71,94.65,97.73,80.1S631.71,358.74,604.45,299.95Z"/><ellipse class="cls-2" cx="360.79" cy="303.28" rx="24.72" ry="26.8"/><ellipse class="cls-2" cx="475.18" cy="302.28" rx="24.72" ry="26.8"/><path class="cls-3" d="M325.63,251.31h-8v-8.82a5.66,5.66,0,0,0-5.41-5.86h0a5.66,5.66,0,0,0-5.41,5.86v8.82H298.6a5.88,5.88,0,0,0,0,11.72h8.22v8.76a5.66,5.66,0,0,0,5.41,5.86h0a5.66,5.66,0,0,0,5.41-5.86V263h8A5.88,5.88,0,0,0,325.63,251.31Z"/><ellipse class="cls-4" cx="500.93" cy="243.93" rx="9.71" ry="10.53"/><ellipse class="cls-4" cx="525.55" cy="271.02" rx="9.71" ry="10.53"/></svg>