<svg id="Calque_1" data-name="Calque 1" xmlns="http://www.w3.org/2000/svg" viewBox="0 0 792 612"><defs><style>.cls-1,.cls-2{fill:none;stroke:#1d1d1b;stroke-linecap:round;stroke-linejoin:round;}.cls-1{stroke-width:47.68px;}.cls-2{stroke-width:28px;}</style></defs><title>WEB DESIGN ICONES</title><path class="cls-1" d="M472.58,280.71a74.62,74.62,0,0,1-132.74-2.64c-43.48,19.88-73.15,59.48-73.15,105.11,0,65.58,61.24,118.75,136.79,118.75s136.79-53.17,136.79-118.75C540.27,339.49,513.07,301.33,472.58,280.71Z"/><circle class="cls-1" cx="405.86" cy="227.89" r="47.95"/><path class="cls-2" d="M646,264.26a43.82,43.82,0,0,1-77.95-1.55c-25.53,11.68-43,34.93-43,61.72,0,38.51,36,69.73,80.32,69.73s80.32-31.22,80.32-69.73C685.77,298.77,669.8,276.37,646,264.26Z"/><circle class="cls-2" cx="606.85" cy="234.89" r="28.16"/><path class="cls-2" d="M243.41,265.4a43.82,43.82,0,0,1-77.95-1.55c-25.53,11.68-43,34.93-43,61.72,0,38.51,36,69.73,80.32,69.73s80.32-31.22,80.32-69.73C283.15,299.92,267.18,277.51,243.41,265.4Z"/><circle class="cls-2" cx="204.23" cy="236.03" r="28.16"/></svg>