<svg id="Calque_1" data-name="Calque 1" xmlns="http://www.w3.org/2000/svg" viewBox="0 0 792 612"><defs><style>.cls-1,.cls-2,.cls-3{fill:none;stroke:#1d1d1b;stroke-linecap:round;stroke-linejoin:round;}.cls-1{stroke-width:36.15px;}.cls-2{stroke-width:34.71px;}.cls-3{stroke-width:20.37px;}.cls-4{fill:#1d1d1b;}</style></defs><title>WEB DESIGN ICONES2</title><circle class="cls-1" cx="439.92" cy="260.04" r="103.03"/><rect class="cls-2" x="227.34" y="413.32" width="201.53" height="45.68" rx="14.88" ry="14.88" transform="translate(-216.52 471.85) rotate(-56.8)"/><circle class="cls-3" cx="439.92" cy="261.35" r="58.05"/><path class="cls-4" d="M453.38,256.45h-8v-8.82a5.66,5.66,0,0,0-5.41-5.86h0a5.66,5.66,0,0,0-5.41,5.86v8.82h-8.22a5.88,5.88,0,0,0,0,11.72h8.22v8.76a5.66,5.66,0,0,0,5.41,5.86h0a5.66,5.66,0,0,0,5.41-5.86v-8.76h8A5.88,5.88,0,0,0,453.38,256.45Z"/></svg>