<svg id="Calque_1" data-name="Calque 1" xmlns="http://www.w3.org/2000/svg" viewBox="0 0 792 612"><defs><style>.cls-1{fill:none;stroke:#1d1d1b;stroke-miterlimit:10;stroke-width:46.73px;}</style></defs><title>WEB DESIGN ICONES</title><path class="cls-1" d="M531.11,407.72L442.38,327.9l79.73-71.72a14.17,14.17,0,0,0,1.06-20l-24.31-27a14.17,14.17,0,0,0-20-1.06l-84.83,76.3-84.16-75.7a14.17,14.17,0,0,0-20,1.06l-24.31,27a14.17,14.17,0,0,0,1.06,20l79.06,71.12-88.06,79.22a14.17,14.17,0,0,0-1.06,20l24.31,27a14.17,14.17,0,0,0,20,1.06l93.16-83.8,93.83,84.4a14.17,14.17,0,0,0,20-1.06l24.31-27A14.17,14.17,0,0,0,531.11,407.72Z"/></svg>