<svg id="Calque_1" data-name="Calque 1" xmlns="http://www.w3.org/2000/svg" viewBox="0 0 792 612"><defs><style>.cls-1{fill:none;stroke:#1d1d1b;stroke-linecap:round;stroke-linejoin:round;stroke-width:28px;}</style></defs><title>WEB DESIGN ICONES</title><path class="cls-1" d="M600.19,299.08H489.41V169a16.59,16.59,0,0,0-16.54-16.54H190.18A16.59,16.59,0,0,0,173.64,169V338.33a16.59,16.59,0,0,0,16.54,16.54h29l21.53,37.29,21.65,37.5,21.65-37.5,21.53-37.29h75.49v80.31a12.15,12.15,0,0,0,12.11,12.11h122.5l15.76,27.3,15.85,27.46,15.85-27.46,15.76-27.3h21.27a12.15,12.15,0,0,0,12.11-12.11v-124A12.15,12.15,0,0,0,600.19,299.08Z"/></svg>