<svg id="Calque_1" data-name="Calque 1" xmlns="http://www.w3.org/2000/svg" viewBox="0 0 792 612"><defs><style>.cls-1{fill:none;stroke:#1d1d1b;stroke-linecap:round;stroke-linejoin:round;stroke-width:28px;}.cls-2{fill:#fff;}</style></defs><title>WEB DESIGN ICONES2</title><path class="cls-1" d="M437.27,174.63H299.68a16.59,16.59,0,0,0-16.54,16.54V360.48A16.59,16.59,0,0,0,299.68,377H582.36a16.59,16.59,0,0,0,16.54-16.54V191.17a16.59,16.59,0,0,0-16.54-16.54H437.27"/><rect class="cls-1" x="436.65" y="137.45" width="162.57" height="36.85" rx="12" ry="12"/><rect class="cls-2" x="219.58" y="250.7" width="315.76" height="197.79" rx="12.1" ry="12.1"/><path class="cls-1" d="M371.26,245H233.67a16.59,16.59,0,0,0-16.54,16.54V430.88a16.59,16.59,0,0,0,16.54,16.54H516.35a16.59,16.59,0,0,0,16.54-16.54V261.56A16.59,16.59,0,0,0,516.35,245H371.26"/><rect class="cls-1" x="370.63" y="207.85" width="162.57" height="36.85" rx="12" ry="12"/></svg>