<svg id="Calque_1" data-name="Calque 1" xmlns="http://www.w3.org/2000/svg" viewBox="0 0 792 612"><defs><style>.cls-1{fill:none;stroke:#1d1d1b;stroke-linecap:round;stroke-linejoin:round;stroke-width:35.23px;}</style></defs><title>WEB DESIGN ICONES2</title><path class="cls-1" d="M520.82,197.52c-2.72-4.25-6.65-7-11-7H338.85c-6.65,0-12.3,6.2-14.16,14.66a27.71,27.71,0,0,0-1,7.31V372.48c-6.59-6.46-14.62-10.26-23.28-10.26-22.42,0-40.6,25.37-40.6,56.67s18.18,56.67,40.6,56.67c9.8,0,18.78-4.85,25.8-12.91,2.66,5.53,7.19,9.19,12.29,9.19h15.85c8.14,0,14.8-9.3,14.8-20.67V254h111V372.29c-6.65-6.63-14.78-10.54-23.57-10.54-22.42,0-40.6,25.37-40.6,56.67s18.18,56.67,40.6,56.67c9.81,0,18.8-4.85,25.82-12.93,2.62,5.86,7.27,9.79,12.55,9.79h15.85c8.14,0,14.8-9.3,14.8-20.67V212.65A24.92,24.92,0,0,0,520.82,197.52Z"/></svg>